# xmcd
# 
# Track frame offsets:
#     150
#     23738
#     44088
#     67603
# 
# Disc length: 1206
# 
# Revision: 0
# Processed by: cddbd v1.5.2PL0 Copyright (c) Steve Scherf et al.
# Submitted via: fre:ac v1.0.17
# 
DISCID=2a04b404
DTITLE=Vanilla Ice - I Love You (Single)
DYEAR=1991
DGENRE=Rap
TTITLE0=I Love You (Long)
TTITLE1=Stop That Train (Long)
TTITLE2=I Love You (Icetrumental)
TTITLE3=I Love You (LP-Version)
EXTD=
EXTT0=
EXTT1=
EXTT2=
EXTT3=
PLAYORDER=
